<?xml version="1.0" encoding="UTF-8"?>
<svg width="24px" height="24px" viewBox="0 0 24 24" version="1.1" xmlns="http://www.w3.org/2000/svg" xmlns:xlink="http://www.w3.org/1999/xlink">
    <!-- Generator: Sketch 52.6 (67491) - http://www.bohemiancoding.com/sketch -->
    <title>在线咨询icon</title>
    <desc>Created with Sketch.</desc>
    <defs>
        <linearGradient x1="-13.5213216%" y1="-18.8680013%" x2="88.8793945%" y2="85.7055664%" id="linearGradient-1">
            <stop stop-color="#5FD2FF" offset="0%"></stop>
            <stop stop-color="#2D73FF" offset="100%"></stop>
        </linearGradient>
    </defs>
    <g id="页面" stroke="none" stroke-width="1" fill="none" fill-rule="evenodd">
        <g id="3.1-悬浮_Hover" transform="translate(-1206.000000, -361.000000)" fill-rule="nonzero">
            <g id="分组-6" transform="translate(1186.000000, 339.000000)">
                <g id="分组-5">
                    <g id="在线咨询icon" transform="translate(20.000000, 22.000000)">
                        <rect id="矩形" fill="url(#linearGradient-1)" x="0" y="0" width="24" height="24" rx="12"></rect>
                        <path d="M11.9524322,6 C15.2925176,6 18,8.62722629 18,11.8679181 C18,14.6249051 15.3861742,16.991874 13.4351928,17.6966513 L10.5778776,18.9791881 C10.4595506,19.0323005 10.3202017,18.9802505 10.2666332,18.8629312 C10.2397592,18.804075 10.2387182,18.736802 10.2637585,18.6771561 L10.5148051,18.079217 C10.6146363,17.8414201 10.5011371,17.5684077 10.2612977,17.4694268 C10.2465513,17.463341 10.2315018,17.4580039 10.2162077,17.4534362 C10.0124491,17.3925817 9.84889201,17.3372496 9.72553662,17.2874397 C7.53798081,16.4041231 6,14.3104164 6,11.8679181 C6,8.62722631 8.61240555,6 11.9524322,6 Z M10.1072848,11.6555213 C10.0447845,11.6192516 9.97310953,11.6000762 9.9000389,11.6000762 C9.67910352,11.6000762 9.5,11.7716778 9.5,11.9833591 L9.5,12.0999805 C9.5,13.4807032 10.6192968,14.6 12.0000195,14.6 C13.3807421,14.6 14.5000389,13.4807032 14.5000389,12.0999805 L14.5000389,11.9833695 C14.5000389,11.9133521 14.4800237,11.844672 14.4421654,11.7847826 C14.3276941,11.6036966 14.0816799,11.5458077 13.8927255,11.6555605 C13.26183,12.0216635 12.6309344,12.204715 12.0000389,12.204715 C11.3691209,12.204715 10.7382029,12.0216505 10.1072848,11.6555213 Z" id="形状" fill="#FFFFFF"></path>
                        <rect id="矩形" fill="#FFFFFF" opacity="0" x="0" y="0" width="24" height="24"></rect>
                    </g>
                </g>
            </g>
        </g>
    </g>
</svg>