<?xml version="1.0" encoding="UTF-8"?>
<svg width="24px" height="24px" viewBox="0 0 24 24" version="1.1" xmlns="http://www.w3.org/2000/svg" xmlns:xlink="http://www.w3.org/1999/xlink">
    <!-- Generator: Sketch 52.6 (67491) - http://www.bohemiancoding.com/sketch -->
    <title>售前咨询icon</title>
    <desc>Created with Sketch.</desc>
    <defs>
        <linearGradient x1="-13.5213216%" y1="-18.8680013%" x2="88.8793945%" y2="85.7055664%" id="linearGradient-1">
            <stop stop-color="#5FD2FF" offset="0%"></stop>
            <stop stop-color="#2D73FF" offset="100%"></stop>
        </linearGradient>
    </defs>
    <g id="页面" stroke="none" stroke-width="1" fill="none" fill-rule="evenodd">
        <g id="3.1-悬浮_Hover" transform="translate(-1206.000000, -418.000000)" fill-rule="nonzero">
            <g id="分组-6" transform="translate(1186.000000, 339.000000)">
                <g id="分组-5">
                    <g id="售前咨询icon" transform="translate(20.000000, 79.000000)">
                        <rect id="矩形" fill="url(#linearGradient-1)" x="0" y="0" width="24" height="24" rx="12"></rect>
                        <path d="M17.3818242,15.7096475 C17.2800439,15.8965722 17.1240938,16.115522 16.9387096,16.3348577 C16.5386129,16.8092908 16.0641808,17.2121282 15.7182708,17.3462178 C15.0820526,17.5935447 14.1158074,17.5370883 13.0125634,17.216129 C10.5506644,16.4954345 7.81450533,13.9546276 7.0252944,11.3746892 C6.32630866,9.38781757 6.32408442,8.32418683 7.02353488,7.45509736 C7.1719995,7.28696642 7.3444803,7.1415969 7.51009315,7.0403925 L7.56891158,6.99896267 C7.84208037,6.80871257 8.26756556,6.66879016 8.76185123,6.58959735 C8.82308954,6.57990258 8.82308954,6.57990258 8.88551424,6.57134642 C8.98688346,6.55787703 9.08429435,6.54770642 9.22765556,6.5338001 L9.55953683,6.5 L9.7190897,6.79250909 C9.78868591,6.92010018 9.85608523,7.04887288 9.92004989,7.17637861 C10.1108505,7.55164284 10.2976091,7.95943021 10.3969987,8.2173706 C10.4213542,8.28173893 10.4438057,8.34680902 10.4652737,8.41557086 C10.5896417,8.82290708 10.6602819,9.24468672 10.6754089,9.67025014 L10.6842602,9.91926233 L10.4906687,10.076509 C10.4516303,10.1080777 10.4516303,10.1080777 10.4154787,10.1367854 C10.2389781,10.2786922 10.1600613,10.3151535 9.84731412,10.4124392 C9.63585521,10.4793262 9.56866551,10.5504454 9.5388404,10.7393151 C9.45481003,11.2732489 10.1098929,12.5470747 10.9737411,13.3383662 C11.9671774,14.2482925 12.8992977,14.7495167 13.5695769,14.768623 C13.7771627,14.7763124 13.7912592,14.7604168 13.9233674,14.2725593 C13.9516889,14.1677187 13.9812232,14.0632082 14.0119643,13.9590488 L14.1276503,13.567073 L14.5354785,13.6015709 C14.6513252,13.6113703 14.7666151,13.626885 14.8830545,13.6484573 C15.4096199,13.7483409 15.9165128,13.9326505 16.3830899,14.193692 C16.9000032,14.4813912 17.3612551,15.0628969 17.5,15.4209595 L17.3818242,15.7096475 Z" id="路径" fill="#FFFFFF"></path>
                        <rect id="矩形" fill="#FFFFFF" opacity="0" x="0" y="0" width="24" height="24"></rect>
                    </g>
                </g>
            </g>
        </g>
    </g>
</svg>