<?xml version="1.0" encoding="UTF-8"?>
<svg width="34px" height="112px" viewBox="0 0 34 112" version="1.1" xmlns="http://www.w3.org/2000/svg" xmlns:xlink="http://www.w3.org/1999/xlink">
    <!-- Generator: Sketch 55.2 (78181) - https://sketchapp.com -->
    <title>咨询试用</title>
    <desc>Created with Sketch.</desc>
    <g id="组件" stroke="none" stroke-width="1" fill="none" fill-rule="evenodd">
        <g id="咨询试用" fill="#FFFFFF">
            <g>
                <path d="M16.788,17.872 C16.368,18.628 15.85,19.314 15.248,19.916 L14.422,18.852 C15.36,17.928 15.99,16.794 16.326,15.45 L17.642,15.618 C17.558,15.968 17.46,16.304 17.348,16.612 L22.64,16.612 L22.64,17.676 C22.22,18.628 21.772,19.412 21.296,20.028 L20.302,19.244 C20.624,18.866 20.932,18.404 21.212,17.872 L16.788,17.872 Z M11.888,15.772 C12.812,16.36 13.582,16.962 14.226,17.578 L13.302,18.474 C12.77,17.9 12,17.284 10.992,16.626 L11.888,15.772 Z M13.708,19.202 L14.716,19.958 C13.694,21.204 12.63,22.24 11.538,23.052 L10.67,22.072 C11.79,21.26 12.798,20.294 13.708,19.202 Z M21.632,23.22 L21.632,28.456 L20.33,28.456 L20.33,27.854 L13.526,27.854 L13.526,28.456 L12.224,28.456 L12.224,23.22 L21.632,23.22 Z M13.526,26.608 L20.33,26.608 L20.33,24.466 L13.526,24.466 L13.526,26.608 Z M18.118,18.18 L19.364,18.306 C19.308,18.642 19.252,18.95 19.168,19.258 C19.742,20.49 21.142,21.358 23.382,21.862 L22.738,23.024 C20.764,22.492 19.392,21.666 18.636,20.518 C18.44,20.826 18.23,21.106 17.992,21.358 C17.32,22.03 16.116,22.576 14.408,22.968 L13.918,21.806 C15.332,21.512 16.34,21.092 16.956,20.546 C17.586,19.986 17.978,19.188 18.118,18.18 Z M15.724,36.014 C15.542,36.21 15.36,36.406 15.164,36.602 L14.338,35.538 C15.472,34.418 16.228,33.06 16.62,31.464 L17.964,31.66 C17.852,32.108 17.712,32.528 17.572,32.934 L22.948,32.934 C22.948,38.226 22.878,41.488 22.738,42.72 C22.598,43.798 21.912,44.344 20.708,44.344 C20.442,44.344 19.98,44.316 19.322,44.288 L19,43.098 C19.588,43.14 20.106,43.168 20.526,43.168 C21.058,43.168 21.38,42.818 21.464,42.132 C21.548,41.348 21.59,38.702 21.618,34.194 L16.998,34.194 C16.718,34.698 16.41,35.16 16.06,35.608 L20.204,35.608 L20.204,42.188 L15.724,42.188 L15.724,36.014 Z M18.958,41.068 L18.958,39.43 L17.012,39.43 L17.012,41.068 L18.958,41.068 Z M17.012,38.338 L18.958,38.338 L18.958,36.728 L17.012,36.728 L17.012,38.338 Z M12.322,31.632 C13.218,32.318 13.988,33.004 14.618,33.704 L13.708,34.628 C13.148,33.97 12.378,33.27 11.398,32.542 L12.322,31.632 Z M10.432,35.692 L13.666,35.692 L13.666,41.586 C14.044,41.236 14.45,40.844 14.884,40.41 L15.248,41.81 C14.408,42.636 13.498,43.378 12.546,44.022 L12.042,42.832 C12.266,42.636 12.392,42.384 12.392,42.104 L12.392,36.966 L10.432,36.966 L10.432,35.692 Z M16.9625,58 C15.7888949,58 14.8375,57.1045695 14.8375,56 C14.8375,54.8954305 15.7888949,54 16.9625,54 C18.1361051,54 19.0875,54.8954305 19.0875,56 C19.0875,57.1045695 18.1361051,58 16.9625,58 Z M16.256,74.408 L15.108,74.408 L15.108,73.05 L18.846,73.05 L18.846,74.408 L17.684,74.408 L17.684,77.712 C18.23,77.6 18.762,77.46 19.294,77.32 L19.294,78.678 C18.076,79.014 16.774,79.308 15.402,79.546 L15.038,78.146 L16.256,77.978 L16.256,74.408 Z M21.786,80.372 C21.254,80.372 20.792,79.994 20.4,79.252 C19.938,78.356 19.602,77.194 19.406,75.766 C19.238,74.548 19.126,73.05 19.07,71.286 L14.786,71.286 L14.786,69.858 L19.028,69.858 C19,69.074 19,68.276 19,67.45 L20.428,67.45 C20.428,68.304 20.428,69.102 20.456,69.858 L23.074,69.858 L23.074,71.286 L20.484,71.286 C20.54,73.33 20.666,74.982 20.848,76.256 C21.128,77.852 21.436,78.692 21.786,78.776 C21.982,78.734 22.192,77.936 22.416,76.368 L23.564,77.292 C23.06,79.336 22.458,80.372 21.786,80.372 Z M21.59,67.436 C22.164,68.08 22.612,68.64 22.934,69.116 L21.926,69.816 C21.59,69.284 21.156,68.71 20.596,68.066 L21.59,67.436 Z M12.392,67.59 C13.232,68.276 13.946,68.962 14.534,69.634 L13.54,70.656 C13.022,70.012 12.294,69.326 11.356,68.598 L12.392,67.59 Z M10.404,71.636 L13.638,71.636 L13.638,77.264 C13.918,76.956 14.226,76.634 14.548,76.298 L14.926,77.838 C14.142,78.678 13.302,79.42 12.42,80.078 L11.86,78.762 C12.112,78.566 12.238,78.314 12.238,78.034 L12.238,73.036 L10.404,73.036 L10.404,71.636 Z M13.134,88.672 L13.134,90.688 L16.214,90.688 L16.214,88.672 L13.134,88.672 Z M13.064,92.032 C12.882,93.768 12.364,95.224 11.51,96.372 L10.39,95.364 C11.216,94.188 11.636,92.69 11.664,90.87 L11.664,83.94 L22.514,83.94 L22.514,94.51 C22.514,95.588 21.954,96.134 20.848,96.134 L19.238,96.134 L18.846,94.706 C19.406,94.762 19.91,94.79 20.386,94.79 C20.806,94.79 21.03,94.51 21.03,93.978 L21.03,92.032 L17.698,92.032 L17.698,95.98 L16.214,95.98 L16.214,92.032 L13.064,92.032 Z M21.03,90.688 L21.03,88.672 L17.698,88.672 L17.698,90.688 L21.03,90.688 Z M21.03,87.328 L21.03,85.368 L17.698,85.368 L17.698,87.328 L21.03,87.328 Z M16.214,85.368 L13.134,85.368 L13.134,87.328 L16.214,87.328 L16.214,85.368 Z" id="形状"></path>
                <rect id="矩形" fill-rule="nonzero" opacity="0" x="0" y="0" width="34" height="112"></rect>
            </g>
        </g>
    </g>
</svg>