<?xml version="1.0" encoding="UTF-8"?>
<svg width="34px" height="112px" viewBox="0 0 34 112" version="1.1" xmlns="http://www.w3.org/2000/svg" xmlns:xlink="http://www.w3.org/1999/xlink">
    <!-- Generator: Sketch 52.6 (67491) - http://www.bohemiancoding.com/sketch -->
    <title>咨询体验</title>
    <desc>Created with Sketch.</desc>
    <g id="页面" stroke="none" stroke-width="1" fill="none" fill-rule="evenodd">
        <g id="3.2-悬浮_回到顶部" transform="translate(-1406.000000, -339.000000)" fill="#FFFFFF">
            <g id="分组-6" transform="translate(1406.000000, 339.000000)">
                <g id="分组">
                    <g id="咨询体验">
                        <path d="M16.888,17.872 C16.468,18.628 15.95,19.314 15.348,19.916 L14.522,18.852 C15.46,17.928 16.09,16.794 16.426,15.45 L17.742,15.618 C17.658,15.968 17.56,16.304 17.448,16.612 L22.74,16.612 L22.74,17.676 C22.32,18.628 21.872,19.412 21.396,20.028 L20.402,19.244 C20.724,18.866 21.032,18.404 21.312,17.872 L16.888,17.872 Z M11.988,15.772 C12.912,16.36 13.682,16.962 14.326,17.578 L13.402,18.474 C12.87,17.9 12.1,17.284 11.092,16.626 L11.988,15.772 Z M13.808,19.202 L14.816,19.958 C13.794,21.204 12.73,22.24 11.638,23.052 L10.77,22.072 C11.89,21.26 12.898,20.294 13.808,19.202 Z M21.732,23.22 L21.732,28.456 L20.43,28.456 L20.43,27.854 L13.626,27.854 L13.626,28.456 L12.324,28.456 L12.324,23.22 L21.732,23.22 Z M13.626,26.608 L20.43,26.608 L20.43,24.466 L13.626,24.466 L13.626,26.608 Z M18.218,18.18 L19.464,18.306 C19.408,18.642 19.352,18.95 19.268,19.258 C19.842,20.49 21.242,21.358 23.482,21.862 L22.838,23.024 C20.864,22.492 19.492,21.666 18.736,20.518 C18.54,20.826 18.33,21.106 18.092,21.358 C17.42,22.03 16.216,22.576 14.508,22.968 L14.018,21.806 C15.432,21.512 16.44,21.092 17.056,20.546 C17.686,19.986 18.078,19.188 18.218,18.18 Z M15.824,36.014 C15.642,36.21 15.46,36.406 15.264,36.602 L14.438,35.538 C15.572,34.418 16.328,33.06 16.72,31.464 L18.064,31.66 C17.952,32.108 17.812,32.528 17.672,32.934 L23.048,32.934 C23.048,38.226 22.978,41.488 22.838,42.72 C22.698,43.798 22.012,44.344 20.808,44.344 C20.542,44.344 20.08,44.316 19.422,44.288 L19.1,43.098 C19.688,43.14 20.206,43.168 20.626,43.168 C21.158,43.168 21.48,42.818 21.564,42.132 C21.648,41.348 21.69,38.702 21.718,34.194 L17.098,34.194 C16.818,34.698 16.51,35.16 16.16,35.608 L20.304,35.608 L20.304,42.188 L15.824,42.188 L15.824,36.014 Z M19.058,41.068 L19.058,39.43 L17.112,39.43 L17.112,41.068 L19.058,41.068 Z M17.112,38.338 L19.058,38.338 L19.058,36.728 L17.112,36.728 L17.112,38.338 Z M12.422,31.632 C13.318,32.318 14.088,33.004 14.718,33.704 L13.808,34.628 C13.248,33.97 12.478,33.27 11.498,32.542 L12.422,31.632 Z M10.532,35.692 L13.766,35.692 L13.766,41.586 C14.144,41.236 14.55,40.844 14.984,40.41 L15.348,41.81 C14.508,42.636 13.598,43.378 12.646,44.022 L12.142,42.832 C12.366,42.636 12.492,42.384 12.492,42.104 L12.492,36.966 L10.532,36.966 L10.532,35.692 Z M17.0625,58 C15.8888949,58 14.9375,57.1045695 14.9375,56 C14.9375,54.8954305 15.8888949,54 17.0625,54 C18.2361051,54 19.1875,54.8954305 19.1875,56 C19.1875,57.1045695 18.2361051,58 17.0625,58 Z M12.1,73.33 C11.722,73.834 11.316,74.338 10.896,74.814 L10.504,73.484 C11.876,71.762 12.898,69.746 13.542,67.45 L14.732,68.01 C14.396,69.144 13.948,70.222 13.402,71.258 L13.402,80.456 L12.1,80.456 L12.1,73.33 Z M14.382,69.774 L17.924,69.774 L17.924,67.506 L19.226,67.506 L19.226,69.774 L22.936,69.774 L22.936,71.048 L20.276,71.048 C20.892,73.232 21.97,75.192 23.482,76.9 L22.628,77.978 C21.004,75.92 19.87,73.61 19.226,71.048 L19.226,76.396 L21.228,76.396 L21.228,77.67 L19.226,77.67 L19.226,80.442 L17.924,80.442 L17.924,77.67 L15.964,77.67 L15.964,76.396 L17.924,76.396 L17.924,71.048 C17.224,73.932 16.048,76.298 14.396,78.146 L13.71,77.012 C15.152,75.444 16.202,73.456 16.86,71.048 L14.382,71.048 L14.382,69.774 Z M17.42,87.902 C16.972,88.392 16.496,88.826 15.992,89.204 L15.292,88.14 C16.832,86.964 18.008,85.424 18.848,83.534 L20.038,83.534 C20.724,85.27 21.914,86.796 23.622,88.098 L22.894,89.19 C22.334,88.77 21.844,88.322 21.41,87.846 L21.41,88.686 L17.42,88.686 L17.42,87.902 Z M21.088,87.482 C20.416,86.67 19.856,85.788 19.436,84.836 C18.946,85.844 18.4,86.726 17.784,87.482 L21.088,87.482 Z M15.698,94.72 L20.192,94.72 C20.696,93.264 21.144,91.472 21.536,89.372 L22.81,89.694 C22.446,91.57 21.998,93.236 21.466,94.72 L23.426,94.72 L23.426,95.994 L15.698,95.994 L15.698,94.72 Z M17.21,89.778 C17.63,90.926 18.022,92.256 18.372,93.74 L17.238,94.02 C16.93,92.676 16.538,91.402 16.076,90.17 L17.21,89.778 Z M19.366,89.358 C19.73,90.45 20.038,91.724 20.318,93.152 L19.17,93.432 C18.932,92.144 18.624,90.912 18.232,89.722 L19.366,89.358 Z M14.018,85.27 L10.742,85.27 L10.742,84.066 L15.334,84.066 L14.676,89.834 L15.488,89.834 C15.488,93.11 15.334,95 15.054,95.504 C14.76,96.008 14.144,96.26 13.22,96.26 C12.912,96.26 12.59,96.246 12.254,96.218 L11.904,95.042 C12.394,95.112 12.73,95.154 12.926,95.154 C13.556,95.154 13.934,94.944 14.06,94.552 C14.2,94.146 14.27,92.97 14.27,91.01 L10.728,91.01 L11.386,86.068 L12.604,86.138 L12.058,89.834 L13.43,89.834 L14.018,85.27 Z M13.654,91.976 L13.654,93.166 C12.744,93.502 11.708,93.782 10.546,94.006 L10.392,92.746 C11.624,92.55 12.716,92.298 13.654,91.976 Z" id="形状"></path>
                        <rect id="矩形" fill-rule="nonzero" opacity="0" x="0" y="0" width="34" height="112"></rect>
                    </g>
                </g>
            </g>
        </g>
    </g>
</svg>