<?xml version="1.0" encoding="UTF-8"?>
<svg width="126px" height="24px" viewBox="0 0 126 24" version="1.1" xmlns="http://www.w3.org/2000/svg" xmlns:xlink="http://www.w3.org/1999/xlink">
    <!-- Generator: Sketch 55.2 (78181) - https://sketchapp.com -->
    <title>LOGO</title>
    <desc>Created with Sketch.</desc>
    <defs>
        <polygon id="path-1" points="0 0.104450704 21.4462648 0.104450704 21.4462648 22.2400901 0 22.2400901"></polygon>
    </defs>
    <g id="定稿" stroke="none" stroke-width="1" fill="none" fill-rule="evenodd">
        <g id="1-DHR首页" transform="translate(-30.000000, -18.000000)">
            <g id="页面导航">
                <g id="导航内容" transform="translate(30.000000, 18.000000)">
                    <g id="LOGO">
                        <g id="编组" transform="translate(0.000000, 0.064563)">
                            <mask id="mask-2" fill="white">
                                <use xlink:href="#path-1"></use>
                            </mask>
                            <g id="Clip-2"></g>
                            <path d="M13.3391662,11.1711887 C13.3391662,12.4237521 12.3237296,13.4391887 11.0711662,13.4391887 C9.81860282,13.4391887 8.8031662,12.4237521 8.8031662,11.1711887 C8.8031662,9.91862535 9.81860282,8.90318873 11.0711662,8.90318873 C12.3237296,8.90318873 13.3391662,9.91862535 13.3391662,11.1711887 L13.3391662,11.1711887 Z M11.0679549,19.7048789 C6.36294085,19.7048789 2.53510986,15.8772169 2.53510986,11.1722028 C2.53510986,6.46735775 6.36294085,2.63952676 11.0679549,2.63952676 C14.1854197,2.63952676 16.9160113,4.3212169 18.4048563,6.82397746 L15.9666592,9.34854085 L14.6767437,8.01282254 C13.7956732,7.00938592 12.5049127,6.37423099 11.0679549,6.37423099 C8.41950423,6.37423099 6.26474366,8.52882254 6.26474366,11.1774423 C6.26474366,13.825893 8.41950423,15.9804845 11.0679549,15.9804845 C12.5424338,15.9804845 13.8632789,15.3120338 14.7448563,14.2631324 L15.9666592,12.998062 L18.4040113,15.5217803 C16.9149972,18.0238648 14.1849127,19.7048789 11.0679549,19.7048789 L11.0679549,19.7048789 Z M21.4080676,14.9833014 L17.7288,11.1732169 L21.4462648,7.32814648 C19.8805183,3.11479437 15.8196169,0.104315493 11.0679549,0.104315493 C4.96502535,0.104315493 -0.000101408451,5.06944225 -0.000101408451,11.1722028 C-0.000101408451,17.2751324 4.96502535,22.2400901 11.0679549,22.2400901 C15.8169127,22.2400901 19.8757859,19.2331606 21.4433915,15.0235268 L21.4062085,14.9849915 L21.4080676,14.9833014 Z" id="Fill-1" fill="#FFFFFF" mask="url(#mask-2)"></path>
                        </g>
                        <path d="M24.4308845,13.4572901 C25.6444056,13.4572901 26.6280676,12.4736282 26.6280676,11.260107 C26.6280676,10.0465859 25.6444056,9.06292394 24.4308845,9.06292394 C23.2173634,9.06292394 22.2337014,10.0465859 22.2337014,11.260107 C22.2337014,12.4736282 23.2173634,13.4572901 24.4308845,13.4572901" id="Fill-3" fill="#FFFFFF"></path>
                        <g id="编组-20" transform="translate(35.233701, 1.928315)" fill="#FFFFFF">
                            <path d="M10.6624789,6.12084507 L7.8308169,6.12084507 L7.8308169,5.35707042 L7.8331831,5.35707042 C7.8331831,3.79994366 9.0955493,2.53757746 10.6526761,2.53757746 L10.6526761,3.55271368e-15 C7.70067606,3.55271368e-15 5.30676056,2.388 5.29611268,5.3376338 L5.29560563,5.3376338 L5.29560563,16.9014085 L7.8308169,16.9014085 L7.8308169,8.31802817 L10.6624789,8.31802817 L10.6624789,6.12084507 Z" id="Fill-5"></path>
                            <polygon id="Fill-7" points="0.237115493 16.9013746 2.77232676 16.9013746 2.77232676 1.85912113 0.237115493 1.85912113"></polygon>
                            <path d="M20.5250423,12.8284225 C19.8871831,13.7721972 18.8071831,14.3926479 17.582338,14.3926479 C15.6221127,14.3926479 14.0330423,12.8035775 14.0330423,10.8433521 C14.0330423,8.88312676 15.6221127,7.29405634 17.582338,7.29405634 C18.8071831,7.29405634 19.8873521,7.91467606 20.5250423,8.8584507 L22.5285352,7.5071831 C21.4713521,5.8523662 19.6514085,4.75884507 17.582338,4.75884507 C14.3152958,4.75884507 11.6668451,7.48301408 11.6668451,10.8433521 C11.6668451,14.2036901 14.3152958,16.9278592 17.582338,16.9278592 C19.6512394,16.9278592 21.4711831,15.8346761 22.5283662,14.1798592 L20.5250423,12.8284225 Z" id="Fill-9"></path>
                            <path d="M42.9784958,14.3927155 C41.0182704,14.3927155 39.4292,12.8036451 39.4292,10.8434197 C39.4292,8.88319437 41.0182704,7.29412394 42.9784958,7.29412394 C44.9387211,7.29412394 46.5277915,8.88319437 46.5277915,10.8434197 C46.5277915,12.8036451 44.9387211,14.3927155 42.9784958,14.3927155 L42.9784958,14.3927155 Z M46.3587775,4.75891268 L46.3587775,5.8512507 C45.4004676,5.16353239 44.2356225,4.75891268 42.9784958,4.75891268 C39.7114535,4.75891268 37.0630028,7.48308169 37.0630028,10.8434197 C37.0630028,14.2037577 39.7114535,16.9279268 42.9784958,16.9279268 C44.2356225,16.9279268 45.4004676,16.523307 46.3587775,15.8354197 L46.3587775,16.9013915 L48.8939887,16.9013915 L48.8939887,10.8437577 L48.8939887,10.8434197 L48.8939887,10.8429127 L48.8939887,4.75891268 L46.3587775,4.75891268 Z" id="Fill-10"></path>
                            <path d="M73.6466254,10.8439099 C73.6466254,12.8041352 72.0575549,14.3932056 70.0973296,14.3932056 C68.1371042,14.3932056 66.5480338,12.8041352 66.5480338,10.8439099 C66.5480338,8.88368451 68.1371042,7.29461408 70.0973296,7.29461408 C72.0575549,7.29461408 73.6466254,8.88368451 73.6466254,10.8439099 L73.6466254,10.8439099 Z M73.4771042,4.75974085 L73.4771042,6.18790986 C72.8152451,5.5860507 71.5701183,4.78509296 70.0968225,4.75974085 C66.8377239,4.70362817 64.1813296,7.48390986 64.1813296,10.8442479 C64.1813296,14.2045859 66.8525972,16.9154028 70.0968225,16.9287549 C71.3882592,16.9339944 72.6856113,16.2256563 73.4754141,15.5016 C73.4755831,15.5166423 73.4771042,15.8671775 73.4771042,15.8822197 C73.4771042,17.8424451 71.8880338,19.4326986 69.9278085,19.4315155 C68.5643718,19.4306704 67.5590761,18.8876282 66.8928225,18.0437408 L64.7928225,19.4600789 C65.9537803,21.0537127 67.8110761,21.9917408 69.9278085,21.9667268 C73.2504563,21.9275155 75.9496113,19.3025577 76.0094423,15.993938 L76.0123155,15.993938 L76.0123155,4.75974085 L73.4771042,4.75974085 Z" id="Fill-11"></path>
                            <path d="M80.5177746,9.90055775 C80.9267887,8.39193803 82.3018873,7.28083944 83.9398028,7.28083944 C85.5777183,7.28083944 86.9528169,8.39193803 87.361831,9.90055775 L80.5177746,9.90055775 Z M89.7866761,11.7597127 C89.8318028,11.4566704 89.8552958,11.1461915 89.8552958,10.8301352 C89.8552958,7.46979718 87.2068451,4.74562817 83.9398028,4.74562817 C80.6727606,4.74562817 78.0243099,7.46979718 78.0243099,10.8301352 C78.0243099,14.1904732 80.6727606,16.9146423 83.9398028,16.9146423 C86.0088732,16.9146423 87.8379437,16.0927268 89.1314085,14.331938 L87.0400282,12.9211775 C86.1910704,14.0141915 85.1648169,14.379431 83.9398028,14.379431 C82.3018873,14.379431 80.9267887,13.2681634 80.5177746,11.7597127 L89.7866761,11.7597127 Z" id="Fill-12"></path>
                            <path d="M30.0490873,4.77971831 C28.8259324,4.77971831 27.6397915,5.35216901 26.8378197,6.1404507 L26.8378197,0.0221408451 L24.3026085,0.0221408451 L24.3026085,10.0191549 L24.3026085,16.9235493 L26.8378197,16.9235493 L26.8378197,10.5261972 C26.8378197,8.75273239 28.2756225,7.31492958 30.0490873,7.31492958 C31.5424958,7.31492958 32.7533127,8.52574648 32.7533127,10.0191549 L32.7533127,16.9235493 L35.2885239,16.9235493 L35.2885239,10.0191549 C35.2885239,7.12546479 32.9322986,4.77971831 30.0490873,4.77971831" id="Fill-13"></path>
                            <path d="M57.1756789,4.77971831 C55.9525239,4.77971831 54.7663831,5.35216901 53.9644113,6.1404507 L53.9644113,4.75892958 L51.4292,4.75892958 L51.4292,10.0191549 L51.4292,16.9235493 L53.9644113,16.9235493 L53.9644113,10.5261972 C53.9644113,8.75273239 55.4022141,7.31492958 57.1756789,7.31492958 C58.6692563,7.31492958 59.8799042,8.52574648 59.8799042,10.0191549 L59.8799042,16.9235493 L62.4151155,16.9235493 L62.4151155,10.0191549 C62.4151155,7.12546479 60.0590592,4.77971831 57.1756789,4.77971831" id="Fill-14"></path>
                        </g>
                    </g>
                </g>
            </g>
        </g>
    </g>
</svg>